<svg xmlns="http://www.w3.org/2000/svg" xmlns:xlink="http://www.w3.org/1999/xlink" viewBox="0 0 218.75 218.75"><defs><style>.cls-1{fill:none;stroke-miterlimit:10;stroke-width:11px;stroke:url(#Безымянный_градиент_17);}.cls-2{fill:url(#Безымянный_градиент_22);}.cls-3{fill:url(#Безымянный_градиент_13);}</style><linearGradient id="Безымянный_градиент_17" x1="32.04" y1="32.04" x2="186.72" y2="186.72" gradientUnits="userSpaceOnUse"><stop offset="0" stop-color="#00e9d9"/><stop offset="0.06" stop-color="#0fe3d6"/><stop offset="0.17" stop-color="#37d2d0"/><stop offset="0.32" stop-color="#76b8c5"/><stop offset="0.5" stop-color="#cd94b6"/><stop offset="0.6" stop-color="#ff7fad"/><stop offset="0.68" stop-color="#ff82aa"/><stop offset="0.74" stop-color="#fe8b9f"/><stop offset="0.8" stop-color="#fd9a8d"/><stop offset="0.86" stop-color="#fcaf74"/><stop offset="0.92" stop-color="#faca54"/><stop offset="0.97" stop-color="#f8eb2d"/><stop offset="1" stop-color="#f7ff15"/></linearGradient><linearGradient id="Безымянный_градиент_22" x1="162.64" y1="172.86" x2="65.89" y2="76.11" gradientUnits="userSpaceOnUse"><stop offset="0" stop-color="#00e9d9"/><stop offset="0.08" stop-color="#41cece"/><stop offset="0.15" stop-color="#7ab6c4"/><stop offset="0.23" stop-color="#aaa3bc"/><stop offset="0.3" stop-color="#cf93b5"/><stop offset="0.36" stop-color="#e988b1"/><stop offset="0.42" stop-color="#f981ae"/><stop offset="0.46" stop-color="#ff7fad"/><stop offset="0.54" stop-color="#ff85a9"/><stop offset="0.64" stop-color="#ff979c"/><stop offset="0.77" stop-color="#ffb488"/><stop offset="0.9" stop-color="#fedc6d"/><stop offset="1" stop-color="#feff55"/></linearGradient><linearGradient id="Безымянный_градиент_13" x1="70.44" y1="91.44" x2="43.56" y2="64.56" gradientUnits="userSpaceOnUse"><stop offset="0" stop-color="#ff7fad"/><stop offset="0.02" stop-color="#ff83aa"/><stop offset="0.24" stop-color="#ffaf8c"/><stop offset="0.46" stop-color="#fed274"/><stop offset="0.66" stop-color="#feeb63"/><stop offset="0.85" stop-color="#fefa59"/><stop offset="1" stop-color="#feff55"/></linearGradient></defs><title>Ресурс 6</title><g id="Слой_2" data-name="Слой 2"><g id="Слой_3" data-name="Слой 3"><circle class="cls-1" cx="109.38" cy="109.38" r="103.88"/></g><g id="Слой_1-2" data-name="Слой 1"><path class="cls-2" d="M37.5,104.5h40v21c0,2.5,1,4.5,3.5,4.5s3.5-2,3.5-4.5v-21c0-24.5,14.5-44.5,45-45,24.5.5,42,16.5,42,45V164h-40V104.5c0-2.5,0-5.5-3.5-5.5-2.5,0-3.5,2-3.5,5.5v21c0,29.5-18.5,45.5-42,45-26.5,0-45-16.5-45-45Z"/><circle class="cls-3" cx="57" cy="78" r="19"/></g></g></svg>