<svg xmlns="http://www.w3.org/2000/svg" viewBox="0 0 285.73 289.81"><defs><style>.cls-1,.cls-3{fill:none;stroke:#222223;stroke-miterlimit:10;}.cls-1{stroke-width:11px;}.cls-2{font-size:57px;font-family:BerlinSansFBDemi-Bold, Berlin Sans FB Demi;font-weight:700;}.cls-2,.cls-4{fill:#222223;}.cls-3{stroke-width:5px;}</style></defs><title>Ресурс 7</title><g id="Слой_2" data-name="Слой 2"><g id="Слой_3" data-name="Слой 3"><circle class="cls-1" cx="136.12" cy="136.38" r="103.88"/><text class="cls-2" transform="translate(211.37 268.24) rotate(-34.95)">f</text><text class="cls-2" transform="matrix(0.7, -0.72, 0.72, 0.7, 231.29, 253.53)">l</text><text class="cls-2" transform="matrix(0.51, -0.86, 0.86, 0.51, 246.26, 238.38)">o</text><text class="cls-2" transform="translate(265.06 205.54) rotate(-76.65)">w</text><path class="cls-3" d="M197,249.48A131.3,131.3,0,1,1,263,159.61"/></g><g id="Слой_2-2" data-name="Слой 2"><path class="cls-4" d="M65,131.31h40v21c0,2.5,1,4.5,3.5,4.5s3.5-2,3.5-4.5v-21c0-24.5,14.5-44.5,45-45,24.5.5,42,16.5,42,45v59.5H159v-59.5c0-2.5,0-5.5-3.5-5.5-2.5,0-3.5,2-3.5,5.5v21c0,29.5-18.5,45.5-42,45-26.5,0-45-16.5-45-45Z"/><circle class="cls-4" cx="84.5" cy="104.81" r="19"/></g></g></svg>